<svg xmlns="http://www.w3.org/2000/svg" xmlns:xlink="http://www.w3.org/1999/xlink" width="500" zoomAndPan="magnify" viewBox="0 0 375 374.999991" height="500" preserveAspectRatio="xMidYMid meet" version="1.0"><path fill="#000000" d="M 302.183594 267.019531 C 300.097656 264.933594 299.054688 262.003906 299.355469 259.023438 C 299.652344 256.042969 301.242188 253.410156 303.726562 251.722656 L 374.75 204.636719 L 131.773438 131.722656 L 204.683594 374.75 L 251.773438 303.675781 C 253.410156 301.191406 256.09375 299.601562 259.074219 299.304688 C 262.003906 299.007812 264.984375 300.050781 267.070312 302.183594 L 327.664062 362.730469 C 331.539062 366.605469 337.847656 366.605469 341.722656 362.730469 L 362.78125 341.671875 C 364.667969 339.785156 365.710938 337.300781 365.710938 334.667969 C 365.710938 331.988281 364.667969 329.503906 362.78125 327.617188 Z M 302.183594 267.019531 " fill-opacity="1" fill-rule="nonzero"/><path fill="#000000" d="M 50.164062 36.109375 C 46.292969 32.234375 39.984375 32.234375 36.109375 36.109375 C 32.234375 39.984375 32.234375 46.292969 36.109375 50.164062 L 64.222656 78.277344 C 66.160156 80.214844 68.691406 81.207031 71.226562 81.207031 C 73.757812 81.207031 76.292969 80.214844 78.226562 78.277344 C 82.101562 74.402344 82.101562 68.097656 78.226562 64.222656 Z M 50.164062 36.109375 " fill-opacity="1" fill-rule="nonzero"/><path fill="#000000" d="M 176.621094 81.160156 C 179.15625 81.160156 181.6875 80.164062 183.625 78.226562 L 211.738281 50.117188 C 215.613281 46.242188 215.613281 39.933594 211.738281 36.058594 C 207.863281 32.183594 201.554688 32.183594 197.683594 36.058594 L 169.570312 64.171875 C 165.695312 68.046875 165.695312 74.355469 169.570312 78.226562 C 171.554688 80.214844 174.089844 81.160156 176.621094 81.160156 Z M 176.621094 81.160156 " fill-opacity="1" fill-rule="nonzero"/><path fill="#000000" d="M 64.222656 169.570312 L 36.109375 197.683594 C 32.234375 201.554688 32.234375 207.863281 36.109375 211.738281 C 38.046875 213.675781 40.578125 214.667969 43.113281 214.667969 C 45.644531 214.667969 48.179688 213.675781 50.117188 211.738281 L 78.226562 183.625 C 82.101562 179.75 82.101562 173.445312 78.226562 169.570312 C 74.402344 165.695312 68.097656 165.695312 64.222656 169.570312 Z M 64.222656 169.570312 " fill-opacity="1" fill-rule="nonzero"/><path fill="#000000" d="M 59.355469 123.925781 C 59.355469 118.460938 54.882812 113.988281 49.421875 113.988281 L 9.683594 113.988281 C 4.222656 113.988281 -0.25 118.460938 -0.25 123.925781 C -0.25 129.386719 4.222656 133.859375 9.683594 133.859375 L 49.421875 133.859375 C 54.933594 133.859375 59.355469 129.386719 59.355469 123.925781 Z M 59.355469 123.925781 " fill-opacity="1" fill-rule="nonzero"/><path fill="#000000" d="M 133.859375 9.683594 C 133.859375 4.222656 129.386719 -0.25 123.925781 -0.25 C 118.460938 -0.25 113.988281 4.222656 113.988281 9.683594 L 113.988281 49.421875 C 113.988281 54.882812 118.460938 59.355469 123.925781 59.355469 C 129.386719 59.355469 133.859375 54.882812 133.859375 49.421875 Z M 133.859375 9.683594 " fill-opacity="1" fill-rule="nonzero"/></svg>