<svg xmlns="http://www.w3.org/2000/svg" xmlns:xlink="http://www.w3.org/1999/xlink" width="500" zoomAndPan="magnify" viewBox="0 0 375 374.999991" height="500" preserveAspectRatio="xMidYMid meet" version="1.0"><defs><clipPath id="b0c33685e0"><path d="M 0 181 L 180 181 L 180 360.949219 L 0 360.949219 Z M 0 181 " clip-rule="nonzero"/></clipPath><clipPath id="75cccec31f"><path d="M 105 13.699219 L 375 13.699219 L 375 283 L 105 283 Z M 105 13.699219 " clip-rule="nonzero"/></clipPath></defs><g clip-path="url(#b0c33685e0)"><path stroke-linecap="round" transform="matrix(0.0996254, 0, 0, 0.0995246, -11.765755, -11.720452)" fill="none" stroke-linejoin="round" d="M 1288.460721 2219.944628 C 1280.775683 2215.823475 1272.659341 2211.466828 1263.87644 2206.75694 L 1212.668991 2000.228321 C 1105.196082 1989.591823 1104.921617 1989.552574 997.448708 1978.916075 L 906.757413 2171.432774 C 841.669844 2191.135809 808.773174 2201.105073 743.685605 2220.808107 L 561.44041 2110.989203 C 477.924432 2179.439585 477.728385 2179.635831 394.212407 2248.086213 L 466.161618 2448.334979 C 434.088346 2508.307562 417.894872 2538.607845 385.78239 2598.541179 L 179.266589 2649.761218 C 168.640847 2757.225178 168.601638 2757.499921 157.975896 2864.963881 L 350.454739 2955.668487 C 370.177057 3020.743449 380.13624 3053.634171 399.858557 3118.709133 L 289.993877 3300.981825 C 358.453453 3384.464601 358.6495 3384.700096 427.109076 3468.222121 L 627.351376 3396.239323 C 687.302517 3428.305815 717.611367 3444.515682 777.562508 3476.621423 L 828.769958 3683.150041 C 936.242867 3693.78654 936.517332 3693.78654 1043.990241 3704.423038 L 1134.681535 3511.945588 C 1199.769105 3492.242554 1232.665774 3482.273289 1297.753344 3462.570255 L 1479.998539 3572.389159 C 1563.514517 3503.938777 1563.710564 3503.742532 1647.226542 3435.29215 L 1575.277331 3235.043383 C 1607.350603 3175.070801 1623.544077 3144.770517 1655.656559 3084.837184 L 1862.17236 3033.617144 C 1872.798101 2926.153185 1872.837311 2925.878441 1883.463053 2818.414481 L 1690.984209 2727.709875 C 1686.004618 2711.343012 1681.691587 2697.017101 1677.65302 2683.672416 M 1150.992637 3271.898262 C 913.423008 3343.841812 662.48298 3209.570735 590.49456 2971.956852 C 518.545349 2734.382218 652.837473 2483.42365 890.446312 2411.4801 C 1128.05515 2339.536551 1378.995178 2473.807627 1450.944389 2711.382261 C 1522.8936 2948.996145 1388.601476 3199.954713 1150.992637 3271.898262 Z M 1150.992637 3271.898262 " stroke="#000000" stroke-width="77" stroke-opacity="1" stroke-miterlimit="10"/></g><g clip-path="url(#75cccec31f)"><path stroke-linecap="round" transform="matrix(0.0996254, 0, 0, 0.0995246, -11.765755, -11.720452)" fill="none" stroke-linejoin="round" d="M 3551.155584 1449.524589 C 3522.532737 1350.06744 3508.103685 1299.828627 3479.480838 1200.371478 L 3650.472942 925.470976 C 3548.097252 796.969514 3547.822786 796.655521 3445.447097 668.114809 L 3139.300263 773.341572 C 3048.765806 723.259756 3003.04767 697.944104 2912.474004 647.862288 L 2838.995627 332.574491 C 2675.727771 314.088178 2675.335678 314.048929 2512.067822 295.562616 L 2369.973031 586.476739 C 2270.538045 615.050064 2220.271621 629.493722 2120.836635 658.106296 L 1845.939677 487.098088 C 1717.45054 589.498918 1717.097656 589.773661 1588.60852 692.135242 L 1693.807285 998.317254 C 1643.697698 1088.864864 1618.407648 1134.590033 1568.298061 1225.137643 L 1253.015442 1298.611906 C 1234.547825 1461.888046 1234.508615 1462.280537 1216.001788 1625.556678 L 1506.935383 1767.638319 C 1535.51902 1867.095468 1549.948072 1917.334281 1578.570919 2016.752181 L 1407.578816 2291.652683 C 1509.954505 2420.154145 1510.228971 2420.507387 1612.60466 2549.008849 L 1918.751494 2443.782087 C 2009.32516 2493.903152 2055.043297 2519.218804 2145.577753 2569.30062 L 2219.05613 2884.588417 C 2382.323986 2903.07473 2382.755289 2903.113979 2546.023144 2921.600292 L 2688.117935 2630.686169 C 2787.552921 2602.112844 2837.780136 2587.669186 2937.215122 2559.056612 L 3212.112081 2730.025571 C 3340.640426 2627.66399 3340.954101 2627.389247 3469.482447 2525.027666 L 3364.244472 2218.845654 C 3414.354059 2128.298044 3439.644109 2082.572875 3489.753696 1992.025265 L 3805.036315 1918.551002 C 3823.543142 1755.274861 3823.582351 1754.843122 3842.049969 1591.60623 Z M 2529.045483 2369.993831 C 2108.485681 2369.993831 1767.599337 2029.115639 1767.599337 1608.561829 C 1767.599337 1188.00802 2108.485681 847.090579 2529.045483 847.090579 C 2949.566077 847.090579 3290.49163 1188.00802 3290.49163 1608.561829 C 3290.49163 2029.115639 2949.566077 2369.993831 2529.045483 2369.993831 Z M 2529.045483 2369.993831 " stroke="#000000" stroke-width="77" stroke-opacity="1" stroke-miterlimit="10"/></g></svg>