<svg xmlns="http://www.w3.org/2000/svg" xmlns:xlink="http://www.w3.org/1999/xlink" width="500" zoomAndPan="magnify" viewBox="0 0 375 374.999991" height="500" preserveAspectRatio="xMidYMid meet" version="1.0"><defs><clipPath id="f2415bc028"><path d="M 93.515625 0 L 281.765625 0 L 281.765625 375 L 93.515625 375 Z M 93.515625 0 " clip-rule="nonzero"/></clipPath></defs><path fill="#ffffff" d="M 187.5 329.042969 C 180.261719 329.042969 174.375 334.929688 174.375 342.164062 C 174.375 349.398438 180.261719 355.28125 187.5 355.28125 C 194.734375 355.28125 200.625 349.398438 200.625 342.164062 C 200.625 334.929688 194.734375 329.042969 187.5 329.042969 " fill-opacity="1" fill-rule="nonzero"/><g clip-path="url(#f2415bc028)"><path fill="#ffffff" d="M 270.378906 306.117188 C 270.378906 307.851562 268.949219 309.285156 267.203125 309.285156 L 107.792969 309.285156 C 106.050781 309.285156 104.621094 307.851562 104.621094 306.117188 L 104.621094 68.976562 C 104.621094 67.234375 106.050781 65.804688 107.792969 65.804688 L 267.203125 65.804688 C 268.949219 65.804688 270.378906 67.234375 270.378906 68.976562 Z M 187.5 362.335938 C 176.378906 362.335938 167.324219 353.285156 167.324219 342.164062 C 167.324219 331.039062 176.378906 321.992188 187.5 321.992188 C 198.625 321.992188 207.675781 331.039062 207.675781 342.164062 C 207.675781 353.285156 198.625 362.335938 187.5 362.335938 M 165.292969 26.484375 C 165.292969 24.738281 166.722656 23.308594 168.464844 23.308594 L 206.53125 23.308594 C 208.277344 23.308594 209.707031 24.738281 209.707031 26.484375 L 209.707031 30.714844 C 209.707031 32.457031 208.277344 33.882812 206.53125 33.882812 L 168.464844 33.882812 C 166.722656 33.882812 165.292969 32.457031 165.292969 30.714844 Z M 252.929688 0.375 L 122.070312 0.375 C 106.367188 0.375 93.519531 13.226562 93.519531 28.929688 L 93.519531 346.15625 C 93.519531 361.867188 106.367188 374.710938 122.070312 374.710938 L 252.929688 374.710938 C 268.636719 374.710938 281.480469 361.867188 281.480469 346.15625 L 281.480469 28.929688 C 281.480469 13.226562 268.636719 0.375 252.929688 0.375 " fill-opacity="1" fill-rule="nonzero"/></g></svg>