<svg xmlns="http://www.w3.org/2000/svg" xmlns:xlink="http://www.w3.org/1999/xlink" width="500" zoomAndPan="magnify" viewBox="0 0 375 374.999991" height="500" preserveAspectRatio="xMidYMid meet" version="1.0"><defs><clipPath id="96a9cf4266"><path d="M 104.480469 94.921875 L 117.980469 94.921875 L 117.980469 108.421875 L 104.480469 108.421875 Z M 104.480469 94.921875 " clip-rule="nonzero"/></clipPath></defs><path fill="#ffffff" d="M 117.21875 137.753906 C 112.722656 129.257812 108.367188 121.007812 103.886719 112.542969 C 89.976562 120.917969 78.140625 131.113281 67.28125 143.265625 C 75.085938 149.042969 82.695312 154.667969 90.582031 160.492188 C 86.035156 166.554688 81.605469 172.464844 76.984375 178.625 C 69.089844 172.828125 61.359375 167.140625 53.308594 161.21875 C 45 173.921875 38.792969 187.320312 34.15625 201.957031 C 44.832031 204.257812 55.378906 206.527344 66.226562 208.863281 C 64.699219 216.269531 63.238281 223.375 61.695312 230.867188 C 50.789062 228.605469 40.214844 226.417969 29.445312 224.191406 C 25.460938 243.472656 26.839844 262.332031 30.132812 281.421875 C 23.492188 281.421875 17.3125 281.421875 11.148438 281.421875 C 0.132812 230.957031 14.300781 155.023438 79.1875 105.695312 C 141.8125 58.082031 228.703125 57.183594 293.453125 104.472656 C 358.5625 152.019531 374.878906 227.625 363.445312 281.503906 C 357.160156 281.503906 350.847656 281.503906 344.171875 281.503906 C 347.753906 262.628906 348.289062 243.867188 345.359375 224.539062 C 335.269531 226.660156 325.363281 228.730469 315.191406 230.867188 C 313.523438 223.332031 311.957031 216.246094 310.324219 208.894531 C 320.453125 206.683594 330.28125 204.539062 340.410156 202.328125 C 335.964844 188.128906 329.910156 175.0625 321.652344 162.511719 C 314.375 167.917969 307.269531 173.1875 299.945312 178.625 C 295.339844 172.511719 290.894531 166.589844 286.316406 160.507812 C 293.5 155.128906 300.523438 149.875 307.964844 144.304688 C 297.882812 131.996094 285.910156 122.277344 272.363281 113.796875 C 268.089844 121.863281 263.949219 129.6875 259.683594 137.730469 C 252.851562 134.09375 246.335938 130.625 239.59375 127.039062 C 243.941406 118.9375 248.132812 111.140625 252.472656 103.0625 C 235.660156 95.367188 218.316406 91.050781 199.820312 89.507812 C 199.820312 98.648438 199.820312 107.511719 199.820312 116.660156 C 192.113281 116.660156 184.765625 116.660156 176.992188 116.660156 C 176.992188 107.75 176.992188 98.898438 176.992188 89.550781 C 158.398438 90.582031 141.0625 94.847656 123.730469 102.039062 C 128.285156 110.429688 132.714844 118.597656 137.300781 127.046875 C 130.535156 130.652344 124.019531 134.125 117.21875 137.753906 " fill-opacity="1" fill-rule="nonzero"/><path fill="#ffffff" d="M 288.832031 215.414062 C 287.839844 214.070312 287.050781 213.003906 286.066406 211.667969 C 284.699219 212.453125 283.542969 213.113281 282.40625 213.78125 C 252.664062 231.238281 222.9375 248.71875 193.15625 266.101562 C 189.796875 264.601562 186.085938 263.765625 182.171875 263.765625 C 167.257812 263.765625 155.171875 275.855469 155.171875 290.761719 C 155.171875 305.667969 167.257812 317.757812 182.171875 317.757812 C 197.082031 317.757812 209.167969 305.667969 209.167969 290.761719 C 209.167969 289.476562 209.070312 288.203125 208.894531 286.96875 C 232.253906 265.988281 255.699219 245.089844 279.113281 224.183594 C 282.363281 221.28125 285.574219 218.351562 288.832031 215.414062 " fill-opacity="1" fill-rule="nonzero"/><g clip-path="url(#96a9cf4266)"><path fill="#ffffff" d="M 111.171875 94.921875 C 114.867188 94.921875 117.863281 97.917969 117.863281 101.613281 C 117.863281 105.308594 114.867188 108.304688 111.171875 108.304688 C 107.476562 108.304688 104.480469 105.308594 104.480469 101.613281 C 104.480469 97.917969 107.476562 94.921875 111.171875 94.921875 Z M 111.171875 94.921875 " fill-opacity="1" fill-rule="evenodd"/></g></svg>