<svg xmlns="http://www.w3.org/2000/svg" xmlns:xlink="http://www.w3.org/1999/xlink" width="500" zoomAndPan="magnify" viewBox="0 0 375 374.999991" height="500" preserveAspectRatio="xMidYMid meet" version="1.0"><path fill="#ffffff" d="M 286.558594 47.257812 C 282.382812 47.011719 279.199219 43.429688 279.441406 39.253906 C 279.6875 35.078125 283.273438 31.890625 287.449219 32.136719 L 334.980469 35.078125 C 339.15625 35.324219 342.34375 38.90625 342.097656 43.082031 C 342.082031 43.351562 342.050781 43.621094 342.007812 43.882812 L 334.058594 90.839844 C 333.371094 94.964844 329.46875 97.753906 325.34375 97.066406 C 321.21875 96.378906 318.429688 92.476562 319.117188 88.347656 L 323.949219 59.796875 L 223.027344 130.929688 C 220.476562 132.726562 216.972656 132.816406 214.285156 130.90625 L 161.398438 93.363281 L 89.722656 150.386719 C 86.449219 152.992188 81.683594 152.445312 79.082031 149.171875 C 76.476562 145.898438 77.019531 141.132812 80.296875 138.527344 L 156.417969 77.964844 C 159.214844 75.742188 163.097656 75.8125 165.792969 77.921875 L 218.683594 115.464844 L 313.113281 48.898438 Z M 127.65625 0 C 57.152344 0 0 57.152344 0 127.65625 C 0 198.160156 57.152344 255.3125 127.65625 255.3125 C 156.476562 255.3125 183.0625 245.761719 204.425781 229.652344 L 235.03125 260.257812 C 231.414062 266.515625 232.273438 274.707031 237.613281 280.046875 L 326.199219 368.632812 C 332.566406 375 342.988281 375 349.355469 368.632812 L 368.632812 349.355469 C 375 342.988281 375 332.566406 368.632812 326.199219 L 280.046875 237.613281 C 274.707031 232.273438 266.515625 231.414062 260.257812 235.03125 L 229.65625 204.425781 C 245.761719 183.058594 255.3125 156.476562 255.3125 127.65625 C 255.3125 127.355469 255.304688 127.058594 255.304688 126.761719 C 242.164062 136.023438 229.023438 145.285156 215.882812 154.550781 C 204.371094 192.359375 169.230469 219.871094 127.65625 219.871094 C 76.730469 219.871094 35.441406 178.585938 35.441406 127.65625 C 35.441406 76.730469 76.730469 35.441406 127.65625 35.441406 C 166.277344 35.441406 199.347656 59.1875 213.078125 92.875 L 218.710938 96.875 L 245.335938 78.105469 C 225.992188 32.214844 180.585938 0 127.65625 0 Z M 127.65625 0 " fill-opacity="1" fill-rule="evenodd"/></svg>