<svg xmlns="http://www.w3.org/2000/svg" xmlns:xlink="http://www.w3.org/1999/xlink" width="500" zoomAndPan="magnify" viewBox="0 0 375 374.999991" height="500" preserveAspectRatio="xMidYMid meet" version="1.0"><defs><clipPath id="7bb0551e26"><path d="M 12.265625 0 L 278 0 L 278 375 L 12.265625 375 Z M 12.265625 0 " clip-rule="nonzero"/></clipPath><clipPath id="cd9aca3415"><path d="M 304 59 L 362.515625 59 L 362.515625 339 L 304 339 Z M 304 59 " clip-rule="nonzero"/></clipPath></defs><g clip-path="url(#7bb0551e26)"><path fill="#ffffff" d="M 271.355469 24.25 L 214.5 24.25 L 214.5 6.382812 C 214.5 3.132812 211.660156 0.289062 208.410156 0.289062 L 81.300781 0.289062 C 78.054688 0.289062 75.210938 3.132812 75.210938 6.382812 L 75.210938 24.25 L 18.355469 24.25 C 15.109375 24.25 12.265625 27.09375 12.265625 30.339844 L 12.265625 368.617188 C 12.265625 371.867188 15.109375 374.710938 18.355469 374.710938 L 271.761719 374.710938 C 275.011719 374.710938 277.851562 371.867188 277.851562 368.617188 L 277.851562 30.339844 C 277.445312 27.09375 274.605469 24.25 271.355469 24.25 Z M 87.394531 12.472656 L 202.320312 12.472656 L 202.320312 42.929688 L 87.394531 42.929688 Z M 265.261719 362.527344 L 24.042969 362.527344 L 24.042969 36.433594 L 74.804688 36.433594 L 74.804688 49.019531 C 74.804688 52.269531 77.648438 55.113281 80.894531 55.113281 L 208.003906 55.113281 C 211.253906 55.113281 214.09375 52.269531 214.09375 49.019531 L 214.09375 36.433594 L 264.855469 36.433594 L 264.855469 362.527344 Z M 265.261719 362.527344 " fill-opacity="1" fill-rule="nonzero"/></g><path fill="#ffffff" d="M 106.480469 86.382812 C 79.273438 86.382812 57.34375 108.3125 57.34375 135.519531 C 57.34375 162.726562 79.269531 184.65625 106.480469 184.65625 C 133.6875 184.65625 155.617188 163.132812 155.617188 135.925781 C 155.617188 108.71875 133.6875 86.382812 106.480469 86.382812 Z M 106.480469 172.878906 C 86.175781 172.878906 69.523438 156.230469 69.523438 135.925781 C 69.523438 115.621094 86.175781 98.972656 106.480469 98.972656 C 126.785156 98.972656 143.433594 115.621094 143.433594 135.925781 C 143.433594 156.230469 126.785156 172.878906 106.480469 172.878906 Z M 106.480469 172.878906 " fill-opacity="1" fill-rule="nonzero"/><path fill="#ffffff" d="M 114.601562 144.859375 C 110.136719 149.328125 102.824219 149.328125 98.359375 144.859375 C 95.921875 142.421875 92.265625 142.421875 89.828125 144.859375 C 87.394531 147.296875 87.394531 150.953125 89.828125 153.386719 C 94.296875 157.855469 100.386719 160.292969 106.480469 160.292969 C 112.570312 160.292969 118.664062 157.855469 123.128906 153.386719 C 125.566406 150.953125 125.566406 147.296875 123.128906 144.859375 C 120.691406 142.421875 117.039062 142.421875 114.601562 144.859375 Z M 114.601562 144.859375 " fill-opacity="1" fill-rule="nonzero"/><path fill="#ffffff" d="M 120.691406 118.058594 C 117.445312 118.058594 114.601562 120.898438 114.601562 124.148438 C 114.601562 127.398438 117.445312 130.242188 120.691406 130.242188 C 123.941406 130.242188 126.785156 127.398438 126.785156 124.148438 C 126.785156 120.898438 123.941406 118.058594 120.691406 118.058594 Z M 120.691406 118.058594 " fill-opacity="1" fill-rule="nonzero"/><path fill="#ffffff" d="M 98.359375 124.148438 C 98.359375 120.898438 95.515625 118.058594 92.265625 118.058594 C 89.019531 118.058594 86.175781 120.898438 86.175781 124.148438 C 86.175781 127.398438 89.019531 130.242188 92.265625 130.242188 C 95.515625 130.242188 98.359375 127.804688 98.359375 124.148438 Z M 98.359375 124.148438 " fill-opacity="1" fill-rule="nonzero"/><path fill="#ffffff" d="M 106.480469 213.894531 C 79.269531 213.894531 57.34375 236.230469 57.34375 263.441406 C 57.34375 290.648438 79.269531 312.578125 106.480469 312.578125 C 133.6875 312.578125 155.617188 290.648438 155.617188 263.441406 C 155.617188 236.230469 133.6875 213.894531 106.480469 213.894531 Z M 106.480469 300.394531 C 86.175781 300.394531 69.523438 283.746094 69.523438 263.441406 C 69.523438 243.136719 86.175781 226.484375 106.480469 226.484375 C 126.785156 226.484375 143.433594 243.136719 143.433594 263.441406 C 143.433594 283.746094 126.785156 300.394531 106.480469 300.394531 Z M 106.480469 300.394531 " fill-opacity="1" fill-rule="nonzero"/><path fill="#ffffff" d="M 89.828125 272.375 C 87.394531 274.8125 87.394531 278.464844 89.828125 280.902344 C 91.046875 282.121094 92.671875 282.527344 94.296875 282.527344 C 95.921875 282.527344 97.546875 282.121094 98.765625 280.902344 C 103.230469 276.433594 110.539062 276.433594 115.007812 280.902344 C 117.445312 283.339844 121.097656 283.339844 123.535156 280.902344 C 125.972656 278.464844 125.972656 274.8125 123.535156 272.375 C 114.195312 263.441406 99.171875 263.441406 89.828125 272.375 Z M 89.828125 272.375 " fill-opacity="1" fill-rule="nonzero"/><path fill="#ffffff" d="M 120.691406 245.570312 C 117.445312 245.570312 114.601562 248.414062 114.601562 251.664062 C 114.601562 254.910156 117.445312 257.753906 120.691406 257.753906 C 123.941406 257.753906 126.785156 254.910156 126.785156 251.664062 C 126.785156 248.414062 123.941406 245.570312 120.691406 245.570312 Z M 120.691406 245.570312 " fill-opacity="1" fill-rule="nonzero"/><path fill="#ffffff" d="M 98.359375 251.664062 C 98.359375 248.414062 95.515625 245.570312 92.265625 245.570312 C 89.019531 245.570312 86.175781 248.414062 86.175781 251.664062 C 86.175781 254.910156 89.019531 257.753906 92.265625 257.753906 C 95.515625 257.753906 98.359375 254.910156 98.359375 251.664062 Z M 98.359375 251.664062 " fill-opacity="1" fill-rule="nonzero"/><path fill="#ffffff" d="M 175.921875 113.589844 L 175.921875 157.855469 C 175.921875 161.105469 178.765625 163.945312 182.015625 163.945312 L 226.277344 163.945312 C 229.527344 163.945312 232.371094 161.105469 232.371094 157.855469 L 232.371094 113.589844 C 232.371094 110.339844 229.527344 107.5 226.277344 107.5 L 182.015625 107.5 C 178.359375 107.5 175.921875 110.339844 175.921875 113.589844 Z M 188.105469 119.683594 L 220.1875 119.683594 L 220.1875 151.761719 L 188.105469 151.761719 Z M 188.105469 119.683594 " fill-opacity="1" fill-rule="nonzero"/><path fill="#ffffff" d="M 226.277344 235.011719 L 182.015625 235.011719 C 178.765625 235.011719 175.921875 237.855469 175.921875 241.105469 L 175.921875 285.371094 C 175.921875 288.617188 178.765625 291.460938 182.015625 291.460938 L 226.277344 291.460938 C 229.527344 291.460938 232.371094 288.617188 232.371094 285.371094 L 232.371094 241.105469 C 232.371094 237.855469 229.527344 235.011719 226.277344 235.011719 Z M 220.1875 279.277344 L 188.105469 279.277344 L 188.105469 247.195312 L 220.1875 247.195312 Z M 220.1875 279.277344 " fill-opacity="1" fill-rule="nonzero"/><g clip-path="url(#cd9aca3415)"><path fill="#ffffff" d="M 333.488281 59.578125 C 317.648438 59.578125 304.65625 72.574219 304.65625 88.414062 L 304.65625 297.550781 C 304.65625 297.957031 304.65625 298.769531 305.0625 299.175781 C 305.0625 299.175781 305.0625 299.582031 305.0625 299.582031 C 305.0625 299.988281 305.46875 300.394531 305.46875 300.800781 L 328.207031 336.132812 C 329.425781 337.753906 331.050781 338.972656 333.488281 338.972656 C 335.519531 338.972656 337.546875 337.753906 338.765625 336.132812 L 361.914062 300.800781 C 362.320312 300.394531 362.320312 299.988281 362.320312 299.582031 C 362.320312 299.582031 362.320312 299.175781 362.320312 299.175781 C 362.320312 298.769531 362.726562 297.957031 362.726562 297.550781 L 362.726562 88.820312 C 362.726562 72.574219 349.730469 59.578125 333.488281 59.578125 Z M 316.835938 291.867188 L 316.835938 133.894531 L 350.542969 133.894531 L 350.542969 291.867188 Z M 316.835938 108.71875 L 350.542969 108.71875 L 350.542969 121.710938 L 316.835938 121.710938 Z M 333.488281 71.761719 C 342.828125 71.761719 350.136719 79.476562 350.136719 88.414062 L 350.136719 96.128906 L 316.429688 96.128906 L 316.429688 88.414062 C 316.835938 79.476562 324.148438 71.761719 333.488281 71.761719 Z M 333.488281 321.917969 L 321.710938 304.050781 L 344.859375 304.050781 Z M 333.488281 321.917969 " fill-opacity="1" fill-rule="nonzero"/></g></svg>