<svg xmlns="http://www.w3.org/2000/svg" xmlns:xlink="http://www.w3.org/1999/xlink" width="500" zoomAndPan="magnify" viewBox="0 0 375 374.999991" height="500" preserveAspectRatio="xMidYMid meet" version="1.0"><path fill="#000000" d="M 175.160156 0 C 78.53125 0 0 78.53125 0 175.160156 C 0 271.789062 78.53125 350.320312 175.160156 350.320312 C 191.550781 350.320312 207.566406 347.953125 222.929688 343.601562 L 222.929688 312.875 C 211.019531 324.378906 197.519531 331.75 183.121094 333.773438 L 183.121094 270.699219 L 222.929688 270.699219 L 222.929688 254.777344 L 183.121094 254.777344 L 183.121094 183.121094 L 222.929688 183.121094 L 222.929688 167.199219 L 183.121094 167.199219 L 183.121094 95.542969 L 257.730469 95.542969 C 264.855469 116.097656 269.363281 139.488281 270.359375 164.492188 L 278.664062 172.296875 L 286.53125 179.636719 L 290.230469 183.121094 L 334.113281 183.121094 C 333.492188 195.28125 331.566406 207.222656 328.269531 218.792969 L 341.144531 230.859375 C 347.144531 213.039062 350.320312 194.316406 350.320312 175.160156 C 350.320312 78.53125 271.789062 0 175.160156 0 Z M 167.199219 16.578125 L 167.199219 79.617188 L 99.054688 79.617188 C 102.042969 73.054688 105.214844 66.804688 108.726562 61.144531 C 124.621094 35.484375 145.117188 19.6875 167.199219 16.578125 Z M 183.121094 16.578125 C 211.019531 20.433594 235.496094 44.320312 251.417969 79.617188 L 183.121094 79.617188 Z M 234.871094 27.492188 C 261.929688 38.441406 285.195312 56.632812 302.453125 79.617188 L 268.460938 79.617188 C 259.753906 58.6875 248.277344 40.929688 234.871094 27.492188 Z M 114.855469 27.804688 C 107.671875 35.050781 101.015625 43.355469 95.199219 52.746094 C 90.097656 60.988281 85.558594 70.007812 81.609375 79.617188 L 47.925781 79.617188 C 65.0625 56.820312 88.078125 38.75 114.855469 27.804688 Z M 37.351562 95.542969 L 75.792969 95.542969 C 68.792969 117.25 64.660156 141.507812 63.941406 167.199219 L 16.109375 167.199219 C 17.417969 141.136719 25.035156 116.8125 37.351562 95.542969 Z M 92.648438 95.542969 L 167.199219 95.542969 L 167.199219 167.199219 L 79.867188 167.199219 C 80.644531 141.136719 85.183594 116.753906 92.648438 95.542969 Z M 274.308594 95.542969 L 313.089844 95.542969 C 325.375 116.8125 332.902344 141.167969 334.175781 167.199219 L 286.375 167.199219 C 285.628906 141.476562 281.398438 117.21875 274.308594 95.542969 Z M 16.109375 183.121094 L 63.941406 183.121094 C 64.660156 208.808594 68.792969 233.070312 75.792969 254.777344 L 37.351562 254.777344 C 25.035156 233.503906 17.417969 209.183594 16.109375 183.121094 Z M 79.867188 183.121094 L 167.199219 183.121094 L 167.199219 254.777344 L 92.648438 254.777344 C 85.183594 233.566406 80.644531 209.183594 79.867188 183.121094 Z M 254.402344 183.121094 C 250.175781 183.339844 246.816406 186.820312 246.816406 191.082031 L 246.816406 344.347656 C 246.816406 347.582031 248.742188 350.472656 251.730469 351.6875 C 254.714844 352.929688 258.136719 352.246094 260.40625 349.976562 L 284.386719 325.964844 L 304.382812 369.570312 C 306.21875 373.550781 310.945312 375.292969 314.957031 373.457031 L 345.683594 359.398438 C 349.664062 357.566406 351.40625 352.835938 349.570312 348.824219 L 328.828125 303.542969 L 366.242188 303.542969 C 369.507812 303.542969 372.460938 301.550781 373.644531 298.503906 C 374.855469 295.457031 374.078125 292.003906 371.683594 289.765625 L 260.21875 185.265625 C 258.632812 183.804688 256.550781 183.027344 254.402344 183.121094 Z M 262.738281 209.464844 L 346.089844 287.621094 L 317.476562 287.621094 C 316.230469 287.621094 315.019531 287.898438 313.898438 288.460938 L 313.058594 288.894531 C 309.234375 290.824219 307.585938 295.425781 309.390625 299.3125 L 331.78125 348.203125 L 315.515625 355.667969 L 294.089844 308.921875 C 293.03125 306.558594 290.824219 304.878906 288.273438 304.414062 C 285.691406 303.949219 283.078125 304.785156 281.242188 306.652344 L 262.738281 325.125 Z M 47.925781 270.699219 L 81.609375 270.699219 C 85.558594 280.3125 90.097656 289.328125 95.199219 297.570312 C 101.015625 306.964844 107.671875 315.269531 114.855469 322.515625 C 88.078125 311.566406 65.0625 293.496094 47.925781 270.699219 Z M 99.054688 270.699219 L 167.199219 270.699219 L 167.199219 333.742188 C 145.117188 330.632812 124.621094 314.832031 108.726562 289.207031 C 105.214844 283.515625 102.042969 277.261719 99.054688 270.699219 Z M 99.054688 270.699219 " fill-opacity="1" fill-rule="nonzero"/></svg>