<svg xmlns="http://www.w3.org/2000/svg" xmlns:xlink="http://www.w3.org/1999/xlink" width="500" zoomAndPan="magnify" viewBox="0 0 375 374.999991" height="500" preserveAspectRatio="xMidYMid meet" version="1.0"><defs><clipPath id="e617129ce8"><path d="M 187.5 0 C 83.945312 0 0 83.945312 0 187.5 C 0 291.054688 83.945312 375 187.5 375 C 291.054688 375 375 291.054688 375 187.5 C 375 83.945312 291.054688 0 187.5 0 Z M 187.5 0 " clip-rule="nonzero"/></clipPath></defs><g clip-path="url(#e617129ce8)"><rect x="-37.5" width="450" fill="#01c5ee" y="-37.499999" height="449.999989" fill-opacity="1"/></g><path fill="#ffffff" d="M 151.265625 149.253906 L 144.480469 149.253906 L 144.480469 142.46875 C 144.480469 141.769531 144.410156 141.078125 144.273438 140.390625 C 144.136719 139.703125 143.933594 139.039062 143.667969 138.390625 C 143.398438 137.746094 143.070312 137.132812 142.683594 136.550781 C 142.292969 135.96875 141.851562 135.429688 141.355469 134.933594 C 140.863281 134.441406 140.324219 133.996094 139.742188 133.609375 C 139.160156 133.21875 138.546875 132.890625 137.898438 132.625 C 137.253906 132.355469 136.585938 132.152344 135.902344 132.015625 C 135.214844 131.878906 134.523438 131.808594 133.824219 131.808594 L 122.191406 131.808594 C 121.492188 131.808594 120.800781 131.878906 120.113281 132.015625 C 119.425781 132.152344 118.761719 132.355469 118.113281 132.625 C 117.46875 132.890625 116.855469 133.21875 116.273438 133.609375 C 115.691406 133.996094 115.152344 134.441406 114.65625 134.933594 C 114.164062 135.429688 113.722656 135.96875 113.332031 136.550781 C 112.945312 137.132812 112.617188 137.746094 112.347656 138.390625 C 112.078125 139.039062 111.878906 139.703125 111.738281 140.390625 C 111.601562 141.078125 111.535156 141.769531 111.535156 142.46875 L 111.535156 149.253906 L 104.75 149.253906 C 104.046875 149.253906 103.355469 149.324219 102.667969 149.460938 C 101.984375 149.597656 101.316406 149.800781 100.671875 150.070312 C 100.023438 150.335938 99.410156 150.664062 98.828125 151.054688 C 98.246094 151.445312 97.710938 151.886719 97.214844 152.378906 C 96.71875 152.875 96.277344 153.414062 95.890625 153.996094 C 95.5 154.574219 95.171875 155.191406 94.90625 155.835938 C 94.636719 156.480469 94.433594 157.148438 94.296875 157.835938 C 94.160156 158.519531 94.089844 159.214844 94.089844 159.914062 L 94.089844 171.542969 C 94.089844 172.242188 94.160156 172.9375 94.296875 173.621094 C 94.433594 174.308594 94.636719 174.972656 94.90625 175.621094 C 95.171875 176.265625 95.5 176.878906 95.890625 177.460938 C 96.277344 178.042969 96.71875 178.582031 97.214844 179.078125 C 97.710938 179.570312 98.246094 180.011719 98.828125 180.402344 C 99.410156 180.789062 100.023438 181.121094 100.671875 181.386719 C 101.316406 181.65625 101.984375 181.859375 102.667969 181.996094 C 103.355469 182.132812 104.046875 182.203125 104.75 182.203125 L 111.535156 182.203125 L 111.535156 188.988281 C 111.535156 189.6875 111.601562 190.378906 111.742188 191.066406 C 111.878906 191.753906 112.078125 192.417969 112.347656 193.0625 C 112.617188 193.710938 112.945312 194.324219 113.332031 194.90625 C 113.722656 195.488281 114.164062 196.027344 114.660156 196.519531 C 115.152344 197.015625 115.691406 197.457031 116.273438 197.847656 C 116.855469 198.234375 117.46875 198.5625 118.113281 198.832031 C 118.761719 199.097656 119.425781 199.300781 120.113281 199.4375 C 120.800781 199.574219 121.492188 199.644531 122.191406 199.644531 L 133.824219 199.644531 C 134.523438 199.644531 135.214844 199.574219 135.902344 199.4375 C 136.585938 199.300781 137.253906 199.097656 137.898438 198.832031 C 138.546875 198.5625 139.160156 198.234375 139.742188 197.847656 C 140.324219 197.457031 140.859375 197.015625 141.355469 196.519531 C 141.851562 196.027344 142.292969 195.488281 142.679688 194.90625 C 143.070312 194.324219 143.398438 193.710938 143.667969 193.0625 C 143.933594 192.417969 144.136719 191.753906 144.273438 191.066406 C 144.410156 190.378906 144.480469 189.6875 144.480469 188.988281 L 144.480469 182.203125 L 151.265625 182.203125 C 151.964844 182.203125 152.660156 182.132812 153.34375 181.996094 C 154.03125 181.859375 154.699219 181.65625 155.34375 181.386719 C 155.988281 181.121094 156.605469 180.789062 157.183594 180.402344 C 157.765625 180.011719 158.304688 179.570312 158.800781 179.078125 C 159.292969 178.582031 159.734375 178.042969 160.125 177.460938 C 160.515625 176.878906 160.84375 176.265625 161.109375 175.621094 C 161.378906 174.972656 161.582031 174.308594 161.71875 173.621094 C 161.855469 172.9375 161.925781 172.242188 161.925781 171.542969 L 161.925781 159.914062 C 161.925781 159.214844 161.855469 158.519531 161.71875 157.835938 C 161.582031 157.148438 161.378906 156.480469 161.109375 155.835938 C 160.84375 155.191406 160.515625 154.574219 160.125 153.996094 C 159.734375 153.414062 159.292969 152.875 158.800781 152.378906 C 158.304688 151.886719 157.765625 151.445312 157.183594 151.054688 C 156.605469 150.664062 155.988281 150.335938 155.34375 150.070312 C 154.699219 149.800781 154.03125 149.597656 153.34375 149.460938 C 152.660156 149.324219 151.964844 149.253906 151.265625 149.253906 Z M 152.234375 171.542969 C 152.234375 171.8125 152.140625 172.039062 151.949219 172.226562 C 151.761719 172.417969 151.535156 172.511719 151.265625 172.511719 L 139.636719 172.511719 C 139.316406 172.511719 139.003906 172.542969 138.691406 172.605469 C 138.378906 172.667969 138.074219 172.757812 137.78125 172.878906 C 137.488281 173.003906 137.207031 173.152344 136.945312 173.328125 C 136.679688 173.503906 136.433594 173.707031 136.210938 173.929688 C 135.984375 174.15625 135.785156 174.398438 135.605469 174.664062 C 135.429688 174.929688 135.28125 175.207031 135.160156 175.503906 C 135.039062 175.796875 134.945312 176.097656 134.882812 176.410156 C 134.820312 176.722656 134.789062 177.039062 134.789062 177.355469 L 134.789062 188.988281 C 134.789062 189.253906 134.695312 189.484375 134.507812 189.671875 C 134.316406 189.859375 134.089844 189.957031 133.824219 189.957031 L 122.191406 189.957031 C 121.925781 189.957031 121.695312 189.859375 121.507812 189.671875 C 121.320312 189.484375 121.222656 189.253906 121.222656 188.988281 L 121.222656 177.355469 C 121.222656 177.039062 121.191406 176.722656 121.132812 176.410156 C 121.070312 176.097656 120.976562 175.796875 120.855469 175.503906 C 120.734375 175.207031 120.585938 174.929688 120.40625 174.664062 C 120.230469 174.398438 120.03125 174.15625 119.804688 173.929688 C 119.578125 173.707031 119.335938 173.503906 119.070312 173.328125 C 118.804688 173.152344 118.527344 173.003906 118.234375 172.878906 C 117.9375 172.757812 117.636719 172.667969 117.324219 172.605469 C 117.011719 172.542969 116.695312 172.511719 116.378906 172.511719 L 104.75 172.511719 C 104.480469 172.511719 104.253906 172.417969 104.0625 172.226562 C 103.875 172.039062 103.78125 171.8125 103.78125 171.542969 L 103.78125 159.914062 C 103.78125 159.644531 103.875 159.417969 104.0625 159.230469 C 104.253906 159.039062 104.480469 158.945312 104.75 158.945312 L 116.378906 158.945312 C 116.695312 158.945312 117.011719 158.914062 117.324219 158.851562 C 117.636719 158.789062 117.9375 158.699219 118.234375 158.578125 C 118.527344 158.453125 118.804688 158.304688 119.070312 158.128906 C 119.335938 157.953125 119.582031 157.75 119.804688 157.527344 C 120.03125 157.300781 120.230469 157.054688 120.40625 156.792969 C 120.585938 156.527344 120.734375 156.25 120.855469 155.953125 C 120.976562 155.660156 121.070312 155.355469 121.132812 155.046875 C 121.191406 154.734375 121.222656 154.417969 121.222656 154.101562 L 121.222656 142.46875 C 121.222656 142.203125 121.320312 141.972656 121.507812 141.785156 C 121.695312 141.59375 121.925781 141.5 122.191406 141.5 L 133.824219 141.5 C 134.089844 141.5 134.320312 141.59375 134.507812 141.785156 C 134.695312 141.972656 134.789062 142.203125 134.789062 142.46875 L 134.789062 154.101562 C 134.789062 154.417969 134.820312 154.734375 134.882812 155.046875 C 134.945312 155.355469 135.039062 155.660156 135.160156 155.953125 C 135.28125 156.25 135.429688 156.527344 135.605469 156.792969 C 135.785156 157.054688 135.984375 157.300781 136.210938 157.527344 C 136.433594 157.75 136.679688 157.953125 136.945312 158.128906 C 137.207031 158.304688 137.488281 158.453125 137.78125 158.578125 C 138.074219 158.699219 138.378906 158.789062 138.691406 158.851562 C 139.003906 158.914062 139.316406 158.945312 139.636719 158.945312 L 151.265625 158.945312 C 151.535156 158.945312 151.761719 159.039062 151.949219 159.230469 C 152.140625 159.417969 152.234375 159.644531 152.234375 159.914062 Z M 152.234375 171.542969 " fill-opacity="1" fill-rule="nonzero"/><path fill="#ffffff" d="M 245.753906 177.550781 C 245.226562 177.542969 244.699219 177.5625 244.171875 177.609375 C 243.648438 177.65625 243.125 177.726562 242.605469 177.824219 C 242.085938 177.917969 241.574219 178.039062 241.066406 178.1875 C 240.558594 178.335938 240.058594 178.503906 239.570312 178.699219 C 239.078125 178.894531 238.597656 179.117188 238.128906 179.359375 C 237.660156 179.601562 237.203125 179.863281 236.761719 180.152344 C 236.316406 180.441406 235.890625 180.746094 235.476562 181.078125 C 235.0625 181.40625 234.667969 181.753906 234.289062 182.121094 C 233.910156 182.488281 233.550781 182.875 233.210938 183.277344 C 232.867188 183.679688 232.546875 184.097656 232.246094 184.535156 C 231.949219 184.96875 231.667969 185.417969 231.414062 185.878906 C 231.15625 186.339844 230.921875 186.8125 230.714844 187.296875 C 230.503906 187.78125 230.316406 188.273438 230.15625 188.777344 C 229.992188 189.28125 229.855469 189.789062 229.746094 190.304688 C 229.632812 190.820312 229.546875 191.339844 229.484375 191.867188 C 229.425781 192.390625 229.390625 192.917969 229.378906 193.445312 C 229.371094 193.972656 229.386719 194.5 229.429688 195.027344 C 229.46875 195.550781 229.539062 196.074219 229.632812 196.59375 C 229.722656 197.113281 229.84375 197.628906 229.988281 198.136719 C 230.128906 198.644531 230.296875 199.144531 230.492188 199.636719 C 230.683594 200.128906 230.898438 200.609375 231.136719 201.078125 C 231.378906 201.550781 231.640625 202.007812 231.925781 202.453125 C 232.207031 202.898438 232.515625 203.328125 232.839844 203.742188 C 233.167969 204.15625 233.511719 204.554688 233.878906 204.9375 C 234.242188 205.320312 234.625 205.679688 235.027344 206.023438 C 235.429688 206.367188 235.84375 206.691406 236.277344 206.996094 C 236.710938 207.296875 237.15625 207.578125 237.617188 207.839844 C 238.074219 208.097656 238.546875 208.332031 239.03125 208.546875 C 239.511719 208.757812 240.003906 208.949219 240.507812 209.113281 C 241.007812 209.277344 241.515625 209.417969 242.03125 209.535156 C 242.546875 209.648438 243.066406 209.738281 243.589844 209.804688 C 244.117188 209.867188 244.640625 209.90625 245.167969 209.917969 C 266.453125 209.527344 267.265625 178.460938 245.753906 177.550781 Z M 245.359375 200.230469 C 244.9375 200.222656 244.519531 200.171875 244.105469 200.078125 C 243.691406 199.988281 243.292969 199.855469 242.90625 199.6875 C 242.515625 199.519531 242.148438 199.3125 241.800781 199.070312 C 241.453125 198.828125 241.132812 198.558594 240.839844 198.253906 C 240.546875 197.949219 240.285156 197.617188 240.054688 197.261719 C 239.824219 196.90625 239.628906 196.535156 239.472656 196.140625 C 239.316406 195.746094 239.199219 195.34375 239.121094 194.925781 C 239.046875 194.511719 239.007812 194.089844 239.011719 193.667969 C 239.015625 193.246094 239.0625 192.828125 239.148438 192.410156 C 239.234375 191.996094 239.359375 191.59375 239.523438 191.207031 C 239.691406 190.816406 239.890625 190.445312 240.128906 190.09375 C 240.367188 189.746094 240.632812 189.421875 240.933594 189.121094 C 241.234375 188.824219 241.5625 188.558594 241.914062 188.324219 C 242.265625 188.089844 242.636719 187.890625 243.03125 187.730469 C 243.421875 187.570312 243.824219 187.449219 244.238281 187.363281 C 244.652344 187.28125 245.074219 187.238281 245.496094 187.238281 C 245.917969 187.25 246.335938 187.300781 246.75 187.390625 C 247.164062 187.484375 247.5625 187.613281 247.949219 187.785156 C 248.335938 187.953125 248.707031 188.160156 249.050781 188.402344 C 249.398438 188.640625 249.71875 188.914062 250.015625 189.21875 C 250.308594 189.523438 250.570312 189.851562 250.800781 190.207031 C 251.027344 190.5625 251.222656 190.9375 251.378906 191.332031 C 251.535156 191.722656 251.652344 192.128906 251.730469 192.542969 C 251.808594 192.960938 251.84375 193.378906 251.839844 193.800781 C 251.835938 194.222656 251.789062 194.644531 251.703125 195.058594 C 251.617188 195.472656 251.492188 195.875 251.328125 196.261719 C 251.164062 196.652344 250.960938 197.023438 250.726562 197.371094 C 250.488281 197.722656 250.21875 198.046875 249.917969 198.34375 C 249.617188 198.644531 249.292969 198.910156 248.941406 199.144531 C 248.589844 199.378906 248.21875 199.574219 247.824219 199.738281 C 247.433594 199.898438 247.03125 200.019531 246.617188 200.105469 C 246.203125 200.1875 245.785156 200.230469 245.359375 200.230469 Z M 245.359375 200.230469 " fill-opacity="1" fill-rule="nonzero"/><path fill="#ffffff" d="M 217.796875 149.492188 C 196.351562 149.675781 195.980469 181.464844 217.464844 181.765625 C 218.515625 181.761719 219.554688 181.65625 220.582031 181.449219 C 221.613281 181.242188 222.613281 180.9375 223.582031 180.535156 C 224.550781 180.132812 225.472656 179.640625 226.347656 179.058594 C 227.21875 178.476562 228.027344 177.8125 228.773438 177.074219 C 229.515625 176.332031 230.183594 175.527344 230.769531 174.660156 C 231.359375 173.789062 231.855469 172.871094 232.265625 171.902344 C 232.671875 170.9375 232.984375 169.9375 233.195312 168.910156 C 233.410156 167.882812 233.523438 166.84375 233.535156 165.792969 C 233.542969 164.746094 233.453125 163.703125 233.261719 162.671875 C 233.070312 161.640625 232.777344 160.636719 232.390625 159.660156 C 232.003906 158.683594 231.523438 157.757812 230.953125 156.875 C 230.386719 155.992188 229.734375 155.175781 229.007812 154.417969 C 228.277344 153.664062 227.484375 152.984375 226.621094 152.386719 C 225.761719 151.785156 224.847656 151.273438 223.886719 150.851562 C 222.925781 150.429688 221.933594 150.105469 220.910156 149.875 C 219.882812 149.648438 218.847656 149.519531 217.796875 149.492188 Z M 217.320312 172.074219 C 216.902344 172.054688 216.492188 171.996094 216.085938 171.894531 C 215.679688 171.796875 215.289062 171.660156 214.910156 171.484375 C 214.53125 171.308594 214.171875 171.097656 213.835938 170.851562 C 213.496094 170.605469 213.183594 170.332031 212.902344 170.023438 C 212.617188 169.71875 212.363281 169.390625 212.144531 169.035156 C 211.921875 168.679688 211.738281 168.308594 211.589844 167.917969 C 211.441406 167.527344 211.335938 167.125 211.265625 166.710938 C 211.195312 166.300781 211.164062 165.886719 211.175781 165.46875 C 211.1875 165.050781 211.238281 164.640625 211.328125 164.230469 C 211.417969 163.824219 211.546875 163.429688 211.714844 163.046875 C 211.882812 162.664062 212.085938 162.300781 212.324219 161.957031 C 212.5625 161.613281 212.828125 161.296875 213.128906 161.007812 C 213.429688 160.714844 213.753906 160.457031 214.105469 160.226562 C 214.453125 160 214.820312 159.808594 215.210938 159.652344 C 215.597656 159.496094 215.996094 159.378906 216.40625 159.300781 C 216.816406 159.222656 217.230469 159.183594 217.648438 159.183594 C 218.078125 159.1875 218.5 159.230469 218.921875 159.316406 C 219.34375 159.402344 219.75 159.53125 220.144531 159.699219 C 220.539062 159.867188 220.914062 160.070312 221.269531 160.3125 C 221.621094 160.558594 221.949219 160.832031 222.246094 161.140625 C 222.546875 161.449219 222.8125 161.78125 223.042969 162.144531 C 223.277344 162.503906 223.46875 162.886719 223.625 163.285156 C 223.78125 163.683594 223.898438 164.09375 223.972656 164.519531 C 224.046875 164.941406 224.078125 165.367188 224.066406 165.796875 C 224.054688 166.226562 224.003906 166.648438 223.90625 167.066406 C 223.8125 167.484375 223.675781 167.890625 223.5 168.28125 C 223.324219 168.671875 223.109375 169.042969 222.859375 169.390625 C 222.609375 169.742188 222.328125 170.0625 222.015625 170.351562 C 221.699219 170.644531 221.359375 170.902344 220.992188 171.128906 C 220.628906 171.351562 220.242188 171.539062 219.839844 171.6875 C 219.4375 171.835938 219.023438 171.941406 218.601562 172.007812 C 218.175781 172.070312 217.75 172.09375 217.320312 172.074219 Z M 217.320312 172.074219 " fill-opacity="1" fill-rule="nonzero"/><path fill="#ffffff" d="M 273.667969 149.492188 C 252.257812 150.039062 251.789062 181.261719 273.441406 181.765625 C 294.710938 181.414062 294.722656 150.1875 273.667969 149.492188 Z M 273.285156 172.074219 C 272.863281 172.0625 272.449219 172.011719 272.039062 171.917969 C 271.628906 171.828125 271.230469 171.695312 270.84375 171.523438 C 270.460938 171.355469 270.09375 171.148438 269.75 170.90625 C 269.40625 170.664062 269.085938 170.390625 268.796875 170.085938 C 268.503906 169.78125 268.246094 169.453125 268.019531 169.097656 C 267.792969 168.742188 267.601562 168.371094 267.449219 167.976562 C 267.296875 167.585938 267.183594 167.183594 267.109375 166.769531 C 267.03125 166.355469 267 165.9375 267.007812 165.515625 C 267.015625 165.09375 267.0625 164.675781 267.152344 164.265625 C 267.242188 163.855469 267.371094 163.457031 267.535156 163.070312 C 267.703125 162.683594 267.90625 162.316406 268.144531 161.96875 C 268.386719 161.621094 268.65625 161.304688 268.957031 161.007812 C 269.257812 160.714844 269.585938 160.453125 269.941406 160.226562 C 270.292969 159.996094 270.664062 159.800781 271.054688 159.644531 C 271.445312 159.488281 271.847656 159.371094 272.261719 159.292969 C 272.675781 159.21875 273.09375 159.179688 273.515625 159.183594 C 273.9375 159.195312 274.351562 159.246094 274.761719 159.339844 C 275.175781 159.429688 275.570312 159.5625 275.957031 159.734375 C 276.34375 159.902344 276.707031 160.109375 277.050781 160.351562 C 277.394531 160.59375 277.714844 160.867188 278.003906 161.171875 C 278.296875 161.476562 278.554688 161.804688 278.78125 162.160156 C 279.007812 162.515625 279.199219 162.886719 279.351562 163.28125 C 279.503906 163.671875 279.621094 164.074219 279.695312 164.488281 C 279.769531 164.902344 279.800781 165.320312 279.792969 165.742188 C 279.785156 166.164062 279.738281 166.582031 279.648438 166.992188 C 279.558594 167.402344 279.433594 167.800781 279.265625 168.1875 C 279.097656 168.574219 278.894531 168.941406 278.65625 169.289062 C 278.414062 169.636719 278.144531 169.953125 277.84375 170.25 C 277.542969 170.542969 277.214844 170.804688 276.863281 171.03125 C 276.507812 171.261719 276.136719 171.457031 275.746094 171.613281 C 275.355469 171.769531 274.953125 171.886719 274.539062 171.964844 C 274.125 172.042969 273.707031 172.078125 273.285156 172.074219 Z M 273.285156 172.074219 " fill-opacity="1" fill-rule="nonzero"/><path fill="#ffffff" d="M 245.304688 154 C 246.363281 153.996094 247.410156 153.890625 248.449219 153.683594 C 249.488281 153.476562 250.496094 153.171875 251.476562 152.765625 C 252.453125 152.363281 253.382812 151.867188 254.265625 151.28125 C 255.148438 150.695312 255.964844 150.03125 256.71875 149.285156 C 257.46875 148.539062 258.144531 147.730469 258.738281 146.855469 C 259.332031 145.976562 259.835938 145.050781 260.25 144.078125 C 260.660156 143.101562 260.976562 142.097656 261.195312 141.0625 C 261.414062 140.023438 261.527344 138.976562 261.539062 137.917969 C 261.554688 136.859375 261.464844 135.808594 261.273438 134.769531 C 261.082031 133.726562 260.789062 132.714844 260.402344 131.730469 C 260.011719 130.746094 259.53125 129.808594 258.960938 128.917969 C 258.386719 128.027344 257.734375 127.199219 257 126.433594 C 256.265625 125.671875 255.46875 124.984375 254.601562 124.378906 C 253.734375 123.769531 252.816406 123.253906 251.847656 122.824219 C 250.878906 122.394531 249.878906 122.066406 248.84375 121.832031 C 247.8125 121.597656 246.765625 121.46875 245.707031 121.4375 C 244.648438 121.441406 243.601562 121.546875 242.5625 121.753906 C 241.523438 121.960938 240.515625 122.269531 239.539062 122.671875 C 238.558594 123.078125 237.628906 123.570312 236.746094 124.15625 C 235.863281 124.742188 235.046875 125.40625 234.296875 126.152344 C 233.542969 126.898438 232.871094 127.707031 232.277344 128.585938 C 231.683594 129.460938 231.179688 130.386719 230.765625 131.363281 C 230.351562 132.335938 230.035156 133.34375 229.816406 134.378906 C 229.601562 135.414062 229.484375 136.460938 229.472656 137.519531 C 229.457031 138.578125 229.546875 139.628906 229.738281 140.671875 C 229.929688 141.710938 230.222656 142.726562 230.609375 143.710938 C 231 144.695312 231.480469 145.632812 232.054688 146.523438 C 232.625 147.414062 233.277344 148.242188 234.011719 149.003906 C 234.746094 149.769531 235.546875 150.453125 236.414062 151.0625 C 237.28125 151.667969 238.199219 152.1875 239.164062 152.613281 C 240.132812 153.042969 241.132812 153.375 242.167969 153.605469 C 243.199219 153.839844 244.246094 153.972656 245.304688 154 Z M 240.972656 133.070312 C 241.4375 132.628906 241.949219 132.265625 242.519531 131.972656 C 243.085938 131.683594 243.683594 131.480469 244.3125 131.367188 C 244.9375 131.25 245.566406 131.230469 246.203125 131.296875 C 246.835938 131.367188 247.445312 131.527344 248.035156 131.773438 C 248.621094 132.023438 249.160156 132.351562 249.652344 132.753906 C 250.144531 133.160156 250.566406 133.628906 250.921875 134.160156 C 251.277344 134.6875 251.546875 135.257812 251.738281 135.867188 C 251.925781 136.476562 252.023438 137.101562 252.027344 137.738281 C 252.011719 138.164062 251.957031 138.585938 251.859375 139 C 251.765625 139.417969 251.632812 139.820312 251.460938 140.210938 C 251.289062 140.601562 251.082031 140.972656 250.84375 141.324219 C 250.601562 141.679688 250.332031 142.003906 250.03125 142.308594 C 249.730469 142.609375 249.402344 142.878906 249.050781 143.121094 C 248.699219 143.363281 248.324219 143.566406 247.933594 143.738281 C 247.542969 143.910156 247.140625 144.042969 246.726562 144.140625 C 246.308594 144.234375 245.890625 144.292969 245.460938 144.308594 C 244.816406 144.296875 244.1875 144.1875 243.574219 143.988281 C 242.960938 143.789062 242.390625 143.503906 241.863281 143.136719 C 241.332031 142.769531 240.867188 142.332031 240.464844 141.828125 C 240.0625 141.324219 239.742188 140.769531 239.503906 140.171875 C 239.265625 139.574219 239.117188 138.953125 239.0625 138.3125 C 239.003906 137.667969 239.042969 137.03125 239.171875 136.398438 C 239.300781 135.769531 239.519531 135.167969 239.828125 134.601562 C 240.136719 134.035156 240.515625 133.523438 240.972656 133.070312 Z M 240.972656 133.070312 " fill-opacity="1" fill-rule="nonzero"/><path fill="#ffffff" d="M 320.511719 251.777344 C 327.996094 223.847656 324.269531 199.277344 316.3125 165.429688 C 308.390625 131.289062 285.992188 84.140625 241.652344 93.121094 C 220.320312 96.3125 194.945312 107.632812 174.570312 101.816406 C 162.925781 98.878906 151.191406 96.441406 139.628906 93.933594 C 73.597656 79.496094 55.746094 168.515625 53.074219 222.03125 C 51.425781 257.855469 69.679688 287.535156 108.199219 266.746094 C 119.882812 260.179688 130.5625 252.257812 140.238281 242.980469 C 143.363281 239.894531 146.820312 237.234375 150.605469 235.003906 C 154.386719 232.773438 158.386719 231.042969 162.605469 229.804688 C 187.988281 223.421875 217.785156 224.160156 238.570312 244.011719 C 258.050781 263.652344 305.027344 294.878906 320.511719 251.777344 Z M 283.972656 262.378906 C 254.683594 253.570312 239.386719 222.386719 209.71875 218.570312 C 182.785156 214.332031 154.769531 215.871094 133.660156 235.863281 C 124.59375 244.574219 114.582031 252.023438 103.628906 258.203125 C 36.191406 292.765625 69.277344 155.386719 82.910156 134.042969 C 105.851562 89.703125 131.417969 101.859375 172.183594 111.210938 C 185.832031 115.296875 204.082031 112.238281 219.65625 107.898438 C 244.613281 101.101562 268.777344 95.707031 286.234375 120.378906 C 308.316406 143.871094 339.023438 278.878906 283.972656 262.378906 Z M 283.972656 262.378906 " fill-opacity="1" fill-rule="nonzero"/></svg>