<svg xmlns="http://www.w3.org/2000/svg" xmlns:xlink="http://www.w3.org/1999/xlink" width="500" zoomAndPan="magnify" viewBox="0 0 375 374.999991" height="500" preserveAspectRatio="xMidYMid meet" version="1.0"><defs><clipPath id="9a69294f0c"><path d="M 0 4.773438 L 375 4.773438 L 375 370.023438 L 0 370.023438 Z M 0 4.773438 " clip-rule="nonzero"/></clipPath></defs><g clip-path="url(#9a69294f0c)"><path fill="#005ba0" d="M 46.941406 4.773438 L 42.257812 14.144531 L 91.453125 42.253906 C 91.453125 65.679688 82.082031 84.421875 61 96.136719 L 11.804688 68.023438 L 9.460938 72.707031 C 21.171875 107.847656 44.601562 131.273438 91.453125 131.273438 C 103.164062 131.273438 138.304688 166.414062 157.046875 185.15625 L 194.527344 147.671875 C 175.785156 128.933594 133.621094 86.765625 133.621094 75.050781 C 133.621094 32.882812 121.90625 4.773438 46.941406 4.773438 Z M 339.769531 16.484375 L 292.917969 49.28125 L 288.234375 68.023438 L 152.359375 203.894531 L 133.621094 192.183594 L 124.25 201.554688 C 124.25 229.664062 91.453125 243.71875 77.398438 243.71875 L 0.0898438 321.027344 C 0.0898438 344.453125 25.859375 370.222656 49.285156 370.222656 L 126.589844 292.914062 C 126.589844 278.859375 140.648438 246.0625 168.757812 246.0625 L 178.128906 236.691406 L 166.417969 217.953125 L 302.289062 82.078125 L 321.03125 77.394531 L 353.828125 30.542969 Z M 222.640625 175.785156 L 185.15625 213.265625 C 213.269531 241.378906 250.75 278.859375 250.75 290.574219 C 250.75 332.738281 262.464844 360.851562 337.429688 360.851562 L 342.113281 351.480469 L 292.917969 323.371094 C 292.917969 299.941406 302.289062 281.203125 323.371094 269.488281 L 372.566406 297.601562 L 374.910156 292.914062 C 363.195312 257.777344 339.769531 234.351562 292.917969 234.351562 C 281.203125 234.351562 250.75 203.894531 222.640625 175.785156 Z M 222.640625 175.785156 " fill-opacity="1" fill-rule="nonzero"/></g></svg>