<svg xmlns="http://www.w3.org/2000/svg" xmlns:xlink="http://www.w3.org/1999/xlink" width="500" zoomAndPan="magnify" viewBox="0 0 375 374.999991" height="500" preserveAspectRatio="xMidYMid meet" version="1.0"><defs><clipPath id="3988b916a3"><path d="M 0 93.75 L 375 93.75 L 375 281.25 L 0 281.25 Z M 0 93.75 " clip-rule="nonzero"/></clipPath></defs><g clip-path="url(#3988b916a3)"><path fill="#005ba0" d="M 93.75 93.75 C 42.113281 93.75 0 135.863281 0 187.5 C 0 239.136719 42.113281 281.25 93.75 281.25 C 94.574219 281.25 95.304688 281.25 96.128906 281.066406 C 96.128906 281.066406 96.222656 281.066406 96.222656 280.976562 C 129.730469 279.875 155.730469 256.347656 173.21875 233.734375 C 167.632812 225.21875 163.328125 217.527344 160.21875 211.667969 C 145.75 232.820312 122.589844 257.8125 93.75 257.8125 C 54.75 257.8125 23.4375 226.5 23.4375 187.5 C 23.4375 148.5 54.75 117.1875 93.75 117.1875 C 118.195312 117.1875 138.792969 134.582031 153.71875 153.625 C 168.640625 172.761719 176.695312 191.984375 176.695312 191.984375 C 177.246094 193.269531 177.976562 194.367188 178.894531 195.375 C 180.175781 198.394531 187.5 215.515625 203.339844 235.65625 C 220.550781 257.539062 246.550781 281.25 280.976562 281.25 C 332.609375 281.25 374.910156 239.410156 375 187.683594 C 375.089844 136.046875 333.160156 93.75 281.523438 93.75 C 280.609375 93.75 279.785156 93.839844 279.050781 93.933594 C 245.726562 95.125 219.726562 118.46875 202.148438 140.992188 C 207.734375 149.597656 211.945312 157.289062 214.964844 163.238281 C 229.523438 142.179688 252.777344 117.1875 281.523438 117.1875 C 320.433594 117.1875 351.652344 148.679688 351.5625 187.683594 C 351.472656 226.683594 320.066406 257.8125 280.976562 257.8125 C 257.628906 257.8125 236.847656 240.417969 221.742188 221.191406 C 206.726562 201.964844 198.304688 182.648438 198.304688 182.648438 C 197.753906 181.457031 197.019531 180.359375 196.105469 179.441406 C 194.824219 176.332031 187.867188 159.394531 172.210938 139.34375 C 155.089844 117.371094 128.90625 93.75 93.75 93.75 Z M 93.75 93.75 " fill-opacity="1" fill-rule="nonzero"/></g></svg>