<svg xmlns="http://www.w3.org/2000/svg" xmlns:xlink="http://www.w3.org/1999/xlink" width="500" zoomAndPan="magnify" viewBox="0 0 375 374.999991" height="500" preserveAspectRatio="xMidYMid meet" version="1.0"><defs><clipPath id="64f970e961"><path d="M 187.5 0 C 83.945312 0 0 83.945312 0 187.5 C 0 291.054688 83.945312 375 187.5 375 C 291.054688 375 375 291.054688 375 187.5 C 375 83.945312 291.054688 0 187.5 0 Z M 187.5 0 " clip-rule="nonzero"/></clipPath><clipPath id="5de0e4c168"><path d="M 171 73.101562 L 285 73.101562 L 285 186 L 171 186 Z M 171 73.101562 " clip-rule="nonzero"/></clipPath><clipPath id="308e16fe1c"><path d="M 45.3125 190 L 329 190 L 329 301.851562 L 45.3125 301.851562 Z M 45.3125 190 " clip-rule="nonzero"/></clipPath></defs><g clip-path="url(#64f970e961)"><rect x="-37.5" width="450" fill="#01c5ee" y="-37.499999" height="449.999989" fill-opacity="1"/></g><g clip-path="url(#5de0e4c168)"><path fill="#ffffff" d="M 228.171875 185.609375 C 259.183594 185.609375 284.414062 160.375 284.414062 129.363281 C 284.414062 98.351562 259.183594 73.117188 228.171875 73.117188 C 197.15625 73.117188 171.925781 98.351562 171.925781 129.363281 C 171.925781 160.375 197.15625 185.609375 228.171875 185.609375 Z M 181.277344 129.363281 C 181.277344 103.507812 202.316406 82.472656 228.171875 82.472656 C 254.027344 82.472656 275.0625 103.507812 275.0625 129.363281 C 275.0625 155.21875 254.027344 176.253906 228.171875 176.253906 C 202.316406 176.253906 181.277344 155.21875 181.277344 129.363281 Z M 181.277344 129.363281 " fill-opacity="1" fill-rule="nonzero"/></g><path fill="#ffffff" d="M 214.433594 155.121094 C 216.863281 157.496094 220.097656 159.164062 223.65625 159.898438 L 223.621094 164.871094 C 223.601562 167.378906 225.628906 169.433594 228.136719 169.453125 L 228.171875 169.453125 C 230.660156 169.453125 232.703125 167.425781 232.71875 164.9375 L 232.757812 159.882812 C 236.304688 159.136719 239.527344 157.460938 241.941406 155.089844 C 244.746094 152.335938 246.292969 148.8125 246.292969 145.164062 L 246.292969 143.15625 C 246.292969 138.304688 243.5625 133.722656 238.988281 130.890625 L 222.765625 120.847656 C 220.863281 119.667969 219.773438 118.019531 219.773438 116.316406 L 219.773438 113.175781 C 219.773438 111.648438 220.621094 110.179688 222.15625 109.039062 C 223.828125 107.796875 226.078125 107.113281 228.484375 107.113281 C 230.886719 107.113281 233.132812 107.796875 234.808594 109.039062 C 236.34375 110.179688 237.191406 111.648438 237.191406 113.175781 L 237.191406 116.722656 C 237.191406 119.230469 239.234375 121.273438 241.742188 121.273438 C 244.25 121.273438 246.292969 119.230469 246.292969 116.722656 L 246.292969 113.175781 C 246.292969 106.246094 240.789062 100.253906 233.03125 98.515625 L 233.03125 93.824219 C 233.03125 91.3125 230.992188 89.273438 228.484375 89.273438 C 225.972656 89.273438 223.933594 91.3125 223.933594 93.824219 L 223.933594 98.515625 C 216.175781 100.253906 210.671875 106.246094 210.671875 113.175781 L 210.671875 116.316406 C 210.671875 121.167969 213.402344 125.753906 217.976562 128.582031 L 234.199219 138.625 C 236.101562 139.804688 237.191406 141.453125 237.191406 143.15625 L 237.191406 145.164062 C 237.191406 146.691406 236.34375 148.160156 234.808594 149.300781 C 233.136719 150.542969 230.886719 151.226562 228.484375 151.226562 L 227.863281 151.226562 C 225.457031 151.226562 223.210938 150.542969 221.535156 149.300781 C 220 148.160156 219.152344 146.691406 219.152344 145.164062 L 219.152344 143.210938 C 219.152344 140.703125 217.113281 138.660156 214.605469 138.660156 C 212.09375 138.660156 210.054688 140.703125 210.054688 143.210938 L 210.054688 145.164062 C 210.050781 148.828125 211.609375 152.363281 214.433594 155.121094 Z M 214.433594 155.121094 " fill-opacity="1" fill-rule="nonzero"/><g clip-path="url(#308e16fe1c)"><path fill="#ffffff" d="M 323.050781 199.125 C 316.707031 192.074219 306.574219 191.371094 299.449219 197.472656 L 257.671875 231.265625 C 257.6875 230.855469 257.695312 230.4375 257.6875 230.023438 C 257.523438 219.945312 249.609375 211.75 240.050781 211.75 L 193.664062 211.75 C 190.988281 211.75 188.46875 210.207031 186.914062 207.621094 C 186.582031 207.0625 186.117188 206.597656 185.605469 206.195312 C 166.617188 191.210938 141.09375 189.246094 119.238281 198.960938 L 111.160156 202.550781 L 94.933594 202.550781 L 94.933594 195.144531 C 94.933594 192.484375 92.777344 190.328125 90.117188 190.328125 L 50.128906 190.328125 C 47.472656 190.328125 45.316406 192.484375 45.316406 195.144531 L 45.316406 284.203125 C 45.316406 286.863281 47.472656 289.019531 50.128906 289.019531 L 90.117188 289.019531 C 92.777344 289.019531 94.933594 286.863281 94.933594 284.203125 L 94.933594 276.5625 L 111.4375 276.5625 L 168.550781 294.695312 C 181.503906 299.484375 192.363281 301.878906 203.21875 301.878906 C 211.921875 301.878906 220.625 300.339844 230.410156 297.265625 C 231.308594 296.980469 232.21875 296.683594 233.136719 296.375 C 235.117188 295.613281 237.039062 294.707031 238.894531 293.671875 C 240.421875 292.820312 241.871094 291.828125 243.226562 290.722656 L 323.03125 225.617188 C 323.292969 225.398438 323.535156 225.15625 323.746094 224.890625 C 329.683594 217.472656 329.375 206.152344 323.050781 199.125 Z M 85.300781 279.390625 L 54.945312 279.390625 L 54.945312 199.957031 L 85.300781 199.957031 Z M 316.503906 218.511719 L 242.074219 279.238281 C 235.570312 284.539062 227.953125 288.304688 219.78125 290.214844 C 203.601562 294 190.261719 292.472656 171.789062 285.628906 C 171.714844 285.601562 171.644531 285.574219 171.570312 285.554688 L 113.640625 267.160156 C 113.167969 267.007812 112.675781 266.933594 112.183594 266.933594 L 94.933594 266.933594 L 94.933594 212.183594 L 112.183594 212.183594 C 112.855469 212.183594 113.523438 212.042969 114.140625 211.769531 L 123.152344 207.761719 C 141.5625 199.578125 162.460938 201.726562 179.234375 213.480469 C 182.59375 218.445312 187.917969 221.382812 193.664062 221.382812 L 240.050781 221.382812 C 244.386719 221.382812 247.980469 225.328125 248.058594 230.183594 C 248.101562 232.863281 247.136719 235.40625 245.40625 237.167969 C 244.554688 238.03125 243.5625 238.65625 242.503906 239.007812 C 241.132812 239.230469 239.742188 239.34375 238.335938 239.34375 L 186.738281 239.34375 C 184.09375 239.34375 181.886719 241.449219 181.851562 244.09375 C 181.816406 246.78125 183.988281 248.972656 186.667969 248.972656 L 240.460938 248.972656 C 241.910156 248.972656 243.332031 248.78125 244.707031 248.40625 C 250.710938 247.320312 256.378906 244.699219 261.359375 240.671875 L 305.5625 204.917969 C 305.601562 204.882812 305.640625 204.851562 305.679688 204.816406 C 308.789062 202.128906 313.082031 202.445312 315.890625 205.566406 C 318.996094 209.015625 319.234375 214.726562 316.503906 218.511719 Z M 316.503906 218.511719 " fill-opacity="1" fill-rule="nonzero"/></g></svg>