<svg xmlns="http://www.w3.org/2000/svg" xmlns:xlink="http://www.w3.org/1999/xlink" width="500" zoomAndPan="magnify" viewBox="0 0 375 374.999991" height="500" preserveAspectRatio="xMidYMid meet" version="1.0"><defs><clipPath id="bf7f0d156b"><path d="M 187.5 0 C 83.945312 0 0 83.945312 0 187.5 C 0 291.054688 83.945312 375 187.5 375 C 291.054688 375 375 291.054688 375 187.5 C 375 83.945312 291.054688 0 187.5 0 Z M 187.5 0 " clip-rule="nonzero"/></clipPath><clipPath id="2f0c122035"><path d="M 66 50.242188 L 312 50.242188 L 312 327.742188 L 66 327.742188 Z M 66 50.242188 " clip-rule="nonzero"/></clipPath></defs><g clip-path="url(#bf7f0d156b)"><rect x="-37.5" width="450" fill="#005ba0" y="-37.499999" height="449.999989" fill-opacity="1"/></g><g clip-path="url(#2f0c122035)"><path fill="#ffffff" d="M 311.285156 205.046875 L 311.285156 87.445312 C 311.285156 84.632812 309.910156 81.992188 307.605469 80.375 C 268.101562 52.644531 228.558594 50.128906 188.820312 50.175781 C 149.332031 50.226562 109.800781 52.734375 70.085938 80.355469 C 67.765625 81.96875 66.382812 84.617188 66.382812 87.445312 C 66.382812 87.445312 66.382812 146.570312 66.382812 205.046875 C 66.382812 272.671875 121.203125 327.496094 188.832031 327.496094 L 188.832031 318.855469 C 188.832031 327.496094 188.832031 327.496094 188.832031 327.496094 C 256.460938 327.496094 311.285156 272.671875 311.285156 205.046875 Z M 294.003906 92.023438 C 259.066406 69.03125 223.96875 67.414062 188.839844 67.457031 C 153.902344 67.5 118.800781 69.128906 83.664062 92.046875 L 83.664062 205.046875 C 83.664062 263.128906 130.746094 310.21875 188.832031 310.21875 C 188.832031 310.21875 188.832031 318.855469 188.832031 318.855469 L 188.832031 310.21875 C 246.914062 310.21875 294.003906 263.128906 294.003906 205.046875 Z M 294.003906 92.023438 " fill-opacity="1" fill-rule="evenodd"/></g><path fill="#ffffff" d="M 242.996094 182.480469 C 242.996094 177.707031 239.128906 173.839844 234.355469 173.839844 L 143.308594 173.839844 C 138.535156 173.839844 134.667969 177.707031 134.667969 182.480469 L 134.667969 246.058594 C 134.667969 250.828125 138.535156 254.699219 143.308594 254.699219 L 234.355469 254.699219 C 239.128906 254.699219 242.996094 250.828125 242.996094 246.058594 Z M 242.996094 182.480469 " fill-opacity="1" fill-rule="evenodd"/><path fill="#ffffff" d="M 231.617188 165.761719 C 231.617188 154.414062 227.105469 143.53125 219.085938 135.507812 C 211.058594 127.484375 200.175781 122.976562 188.832031 122.976562 L 188.832031 131.613281 C 188.832031 122.976562 188.832031 122.976562 188.832031 122.976562 C 177.484375 122.976562 166.601562 127.484375 158.578125 135.507812 C 150.554688 143.53125 146.046875 154.414062 146.046875 165.761719 C 146.046875 174.988281 146.046875 182.480469 146.046875 182.480469 C 146.046875 187.25 149.914062 191.121094 154.6875 191.121094 L 222.976562 191.121094 C 227.746094 191.121094 231.617188 187.25 231.617188 182.480469 Z M 214.335938 173.839844 L 214.335938 165.761719 C 214.335938 158.996094 211.644531 152.507812 206.867188 147.726562 C 202.082031 142.945312 195.59375 140.253906 188.832031 140.253906 L 188.832031 131.617188 L 188.832031 140.253906 C 182.066406 140.253906 175.582031 142.945312 170.796875 147.726562 C 166.015625 152.507812 163.328125 158.996094 163.328125 165.761719 L 163.328125 173.839844 Z M 214.335938 173.839844 " fill-opacity="1" fill-rule="evenodd"/></svg>