<svg xmlns="http://www.w3.org/2000/svg" xmlns:xlink="http://www.w3.org/1999/xlink" width="500" zoomAndPan="magnify" viewBox="0 0 375 374.999991" height="500" preserveAspectRatio="xMidYMid meet" version="1.0"><defs><clipPath id="f236005df4"><path d="M 187.5 0 C 83.945312 0 0 83.945312 0 187.5 C 0 291.054688 83.945312 375 187.5 375 C 291.054688 375 375 291.054688 375 187.5 C 375 83.945312 291.054688 0 187.5 0 Z M 187.5 0 " clip-rule="nonzero"/></clipPath><clipPath id="4607a77afa"><path d="M 21.132812 104.316406 L 354 104.316406 L 354 270.816406 L 21.132812 270.816406 Z M 21.132812 104.316406 " clip-rule="nonzero"/></clipPath></defs><g clip-path="url(#f236005df4)"><rect x="-37.5" width="450" fill="#01c5ee" y="-37.499999" height="449.999989" fill-opacity="1"/></g><g clip-path="url(#4607a77afa)"><path fill="#ffffff" d="M 104.320312 104.316406 C 58.507812 104.316406 21.140625 141.683594 21.140625 187.496094 C 21.140625 233.308594 58.507812 270.675781 104.320312 270.675781 C 105.050781 270.675781 105.699219 270.675781 106.433594 270.515625 C 106.433594 270.515625 106.511719 270.515625 106.511719 270.433594 C 136.242188 269.457031 159.3125 248.582031 174.828125 228.519531 C 169.871094 220.964844 166.054688 214.140625 163.292969 208.941406 C 150.457031 227.707031 129.90625 249.882812 104.320312 249.882812 C 69.714844 249.882812 41.933594 222.101562 41.933594 187.496094 C 41.933594 152.894531 69.714844 125.113281 104.320312 125.113281 C 126.007812 125.113281 144.285156 140.546875 157.527344 157.441406 C 170.765625 174.417969 177.914062 191.476562 177.914062 191.476562 C 178.402344 192.613281 179.050781 193.589844 179.863281 194.484375 C 181 197.164062 187.5 212.351562 201.550781 230.222656 C 216.824219 249.636719 239.894531 270.675781 270.433594 270.675781 C 316.25 270.675781 353.777344 233.554688 353.859375 187.660156 C 353.941406 141.84375 316.738281 104.316406 270.921875 104.316406 C 270.109375 104.316406 269.378906 104.398438 268.730469 104.480469 C 239.160156 105.535156 216.09375 126.25 200.496094 146.230469 C 205.453125 153.867188 209.1875 160.691406 211.867188 165.972656 C 224.785156 147.289062 245.417969 125.113281 270.921875 125.113281 C 305.445312 125.113281 333.144531 153.054688 333.0625 187.660156 C 332.984375 222.261719 305.121094 249.882812 270.433594 249.882812 C 249.722656 249.882812 231.28125 234.449219 217.878906 217.390625 C 204.558594 200.332031 197.085938 183.191406 197.085938 183.191406 C 196.597656 182.136719 195.949219 181.160156 195.136719 180.347656 C 193.996094 177.585938 187.824219 162.558594 173.933594 144.769531 C 158.742188 125.273438 135.511719 104.316406 104.320312 104.316406 Z M 104.320312 104.316406 " fill-opacity="1" fill-rule="nonzero"/></g></svg>